<?xml version="1.0" encoding="UTF-8"?>
<svg id="Layer_1" data-name="Layer 1" xmlns="http://www.w3.org/2000/svg" viewBox="0 0 96 63.15">
  <defs>
    <style>
      .cls-1 {
        fill: #183850;
      }
    </style>
  </defs>
  <path class="cls-1" d="M1,63.15v-15.86c4.32,0,7.58-.62,9.79-1.86,2.32-1.29,3.75-2.83,4.29-4.61.59-1.78.92-5.21.97-10.28H1V1h40.3v25.17c0,9.12-.32,15.32-.97,18.61-.65,3.34-2.54,6.66-5.66,9.95-3.13,3.18-6.93,5.39-11.41,6.64-4.37,1.19-11.79,1.78-22.25,1.78ZM55.62,63.15v-15.86c4.37,0,7.66-.62,9.87-1.86,2.27-1.35,3.67-2.89,4.21-4.61.59-1.73.94-5.15,1.05-10.28h-15.13V1h40.38v25.17c0,9.12-.32,15.32-.97,18.61-.65,3.34-2.54,6.66-5.66,9.95-3.13,3.18-6.93,5.39-11.41,6.64-4.37,1.19-11.81,1.78-22.33,1.78Z"/>
</svg>